<svg id="kidsIcon" viewBox="0 0 1628 709">
  <g fill="none">
    <path
      d="M1627.735 189.112c2.0763 0-8.695 42.2868-9.7463 45.3772-5.1748 15.1598-13.9985 26.8349-24.4857 38.878-13.4187 15.414-36.3317 22.3395-56.0673 27.4775a1.1639 1.1639 0 0 1-.3163.0438c-5.8776.0234-14.019 1.3641-19.759 0-10.3788-2.474-21.598-12.1395-30.9841-17.4148-11.5883-6.5166-32.592-13.5036-41.9516-23.3063-1.4028-1.4693-3.2185-7.7055-4.4046-9.5808-.7087-1.1246-4.3987-3.6103-5.6257-5.2373-2.1057-2.7953-4.797-8.0881-5.986-11.1318-6.5248-16.7634-6.9407-51.3096-2.3516-68.482 3.4264-12.8346 17.1555-21.7406 25.9001-32.5511 8.5602-10.5798 15.375-21.2179 29.069-26.4815 4.8028-1.8431 10.9557-3.622 15.8054-4.9422 7.5176-2.0476 6.7474-1.3203 14.0746-1.1012 11.2193.3359 13.445 2.2725 23.6716-1.183 7.9832-2.699 7.7636-2.9736 16.9212-2.9765.12 0 .246.0117.3631.038 7.2365 1.5422 15.9402 10.0773 22.2424 14.336 7.7139 5.2169 13.0878 10.9712 19.9318 17.7595 8.9204 8.8505 21.314 15.446 25.8475 28.2954 1.1421 3.2364-.1113 32.1831 7.8514 32.1831m-110.2425 218.1505c10.2298-34.363 64.1803 15.084 36.8746 39.7225-27.3145 24.6503-43.5343-17.3424-36.8746-39.7225M786.3452 22.7927c7.4408-12.4639 26.0238-.2252 38.3413 6.5214 6.5198 3.5736 13.6624 10.8875 21.837 10.6126 6.6339-.2222 14.0337-7.7175 19.9132-10.5337 7.6455-3.6642 16.3844-4.796 24.1176-7.9222 10.2943-4.1643 20.3255-10.3085 32.605-10.8349 8.692-.3772 18.1795 2.7753 23.8894 3.9947 6.3795 1.3628 12.3818-2.4974 19.9893-1.6318 7.0198.8013 10.4668 7.1239 12.8584 7.9076 5.8006 1.895 8.6336 1.512 14.522 2.7519 15.5452 3.2753 25.5851-11.3028 36.7916-17.8067 13.835-8.0334 33.5932-7.8316 43.7881 6.188 4.4499 6.1208 5.2568 10.6946 11.7854 15.6602 5.137 3.907 12.8701 6.8636 18.5187 10.5951 4.3417 2.8689 6.2508 6.8402 11.6246 8.2527 8.4407 2.2196 19.9892-.62 28.8217-.12 10.5691.5996 20.2641 4.0094 21.995 15.5725 2.3184 15.476 1.4062 26.7817 20.533 31.3496 22.1703 5.2932 23.3866-8.4515 39.5575-19.3127 24.2286-16.2743 64.2072-10.8028 84.708 6.109 11.2797 9.3055 14.3145 14.0109 21.0506 26.846 7.2625 13.8413 10.1365 30.5864 7.856 46.349-1.3888 9.589-6.9672 22.7606-12.6684 30.8583-8.7096 12.3702-30.1432 16.6018-33.906 32.9726-2.8418 12.3615 11.9199 32.2153 18.583 42.0062 4.2949 6.3167 4.862 6.6413 10.4083 7.308 5.6573.6756 17.7293-3.7753 21.229 3.9334 3.8709 8.5246-13.452 12.9141-17.9164 15.0958-3.8242 1.8686-4.2102.3743-6.745 1.8891-2.988 1.784-5.058 4.8107-5.9819 8.165-3.1692 11.4987-14.2997 7.0916-15.8727 17.7774-.6812 4.6352 5.3913 13.9436 6.0871 17.6926 2.7103 14.6045-21.1207 38.2863-3.9966 40.4095 2.4295.3012 4.8504-.7136 6.3648-2.6378 2.8068-3.5766 6.8912-9.0745 7.435-9.4079 7.4992-8.0391 16.7615-9.5218 22.1177-10.9635 12.5572-3.3777 17.0363-5.84 32.1606-5.8489 16.1095 4.0065 25.8542 8.3521 38.008 20.4709 7.7828 7.7526 20.9365 21.5324 24.1905 33.7125.8011 2.9887 1.9501 5.8371 3.3067 8.6153 2.7775 5.6821 1.6198 13.543.7573 20.8422.1403 12.3469-6.8766 28.9838-13.6361 39.1841-12.6128 19.0262-32.1606 23.3952-52.6264 29.244-17.5422-2.9244-35.4878.8832-50.3957-8.162-6.017-3.6467-14.8815-13.0399-19.8109-17.9821-8.733-8.9487-8.733-35.2683-16.9778-8.8697-2.9267 9.3727.187 21.082 4.827 28.627 3.9586 6.4453 10.1773 8.1386 4.4118 16.4263-6.0345 8.665-17.7176 3.7784-25.9857 7.0274-11.9287 4.6936-14.329 13.5458-16.2645 24.5065-1.7396 9.8347 1.2776 15.9643-3.6985 24.4129-4.251 7.2145-15.1213 15.6456-21.9657 20.6521-6.128 4.4831-14.8932 8.282-19.1355 14.742-3.4032 5.182-3.0757 12.066-6.2801 17.523-3.8768 6.6091-10.2388 8.7235-15.8406 12.6948-8.2418 5.846-14.6535 11.8117-22.1118 18.684-6.5783 6.0653-15.209 9.4488-24.1526 9.4956-14.8962.0702-28.2429.3597-43.3671 5.2288-18.6795 6.0155-28.9036 29.478-46.4194 33.7798-8.8705 2.322-18.3988-8.4954-26.743-11.1332-13.8583-4.3808-21.7055-.2895-30.6958 10.2383-3.3798 3.9568-5.8533 13.1657-8.084 14.8326-5.175 3.8602-24.5912-3.3309-29.4737-5.8634-12.2561-6.346-35.8708-24.9042-51.0944-20.1024-8.932 2.8162-5.8474 15.6105-14.908 18.0787-10.4258 2.8425-18.045-7.6444-23.0445-13.6424-6.6981-8.0333-31.9617-24.1321-43.864-18.7659-5.789 2.6086-7.5637 12.7241-14.4782 15.8006-8.1278 3.6204-16.4516.7282-19.9162-7.8345-3.4704-8.5831 4.4382-17.5025.4006-25.1148-8.4407-14.9086-19.2905-9.4692-25.6232-9.6125-7.2332-.1667-26.6728.5527-30.0175-15.5636-11.227-54.081-49.2817-24.8253-52.2054-54.0694-3.2512-32.534 0-40.9416-32.1606-61.4124-35.3153-22.4828 2.9237-49.7149-26.3132-90.6566-5.5112-7.7204-17.5422-14.274-17.5422-23.3952 0-8.7732 17.5422-23.3952 11.6948-40.9416-1.9618-5.8956-17.5421-17.5465-16.4575-29.3406.7163-7.8286 10.5721-19.8128 15.209-26.15 7.7859-10.639 9.8149-26.3694-1.605-37.8652-2.1957-2.2108-3.9938-6.7232-4.1868-9.8348-1.4209-22.6348 10.2534-25.4569 31.7747-23.5122 9.4581.8569 15.0716-7.3402 17.1445-14.312 2.181-7.3373 0-17.9207 0-25.6646-.7981-11.8847-3.2453-23.2987 7.2362-29.0071 8.0576-4.3925 18.6502-1.0528 26.591-7.1677 9.5224-7.3344 7.0635-17.2336 10.8877-26.8548 4.0464-10.1857 11.572-13.3675 21.0477-16.9704 16.3872-6.2319 37.5752-11.3554 50.5769-23.7812 8.5693-8.1883 23.3661-30.3495 16.6153-38.1869-6.4058-7.4338-2.3653-18.8858 0-22.8483"
      fill="#D901FF" />
    <g fill="#FFF">
      <path
        d="M914.5672 244.5705c-.7178-3.1076-1.7917-5.3886-3.2274-6.8226-1.4386-1.437-3.5922-2.7513-6.4607-3.9517-2.8714-1.1945-6.341-1.7962-10.406-1.7962h-17.9433c-4.0708 0-7.5346.6017-10.406 1.7962-2.8685 1.2004-5.025 2.5147-6.4578 3.9517-1.4357 1.434-2.5124 3.715-3.2303 6.8226-.7178 3.1135-1.138 5.6281-1.2577 7.544-.1226 1.919-.178 4.79-.178 8.619v197.533c0 3.832.0554 6.7088.178 8.619.1196 1.9217.5399 4.4335 1.2577 7.544.7179 3.1134 1.7946 5.3886 3.2303 6.8256 1.4328 1.434 3.5893 2.7541 6.4578 3.9487 2.8714 1.2033 6.3352 1.7962 10.406 1.7962h17.9434c4.0649 0 7.5345-.5929 10.406-1.7962 2.8684-1.1946 5.022-2.5147 6.4606-3.9487 1.4357-1.437 2.5096-3.7122 3.2274-6.8256.7179-3.1105 1.1322-5.6223 1.2577-7.544.1167-1.9102.1751-4.787.1751-8.619v-197.533c0-3.829-.0584-6.7-.175-8.619-.1256-1.9159-.54-4.4305-1.2578-7.544M885.5 213c16.8172 0 30.5-14.528 30.5-32.384C916 163.4785 902.0317 149 885.5 149c-16.5347 0-30.5 14.4785-30.5 31.616C855 198.472 868.6798 213 885.5 213M1028.1884 420.0422C1024.9826 430.6807 1017.0783 436 1004.4841 436c-4.7537 0-7.1276-5.9725-7.1276-17.9321 0-14.3452-.0608-35.739-.1739-64.19-.1246-28.4483-.1826-49.3667-.1826-62.7582 0-4.0623.4754-6.932 1.426-8.6088.948-1.6681 2.9682-2.5109 6.058-2.5109 5.2261 0 9.6261 1.1403 13.1914 3.4091 3.5652 2.2747 6.3507 5.261 8.3768 8.9646 2.0145 3.7095 3.5623 9.1455 4.6319 16.3166 1.0695 7.174 1.7217 14.1672 1.9594 20.9796.2348 6.8153.3565 15.9578.3565 27.4333 0 31.3208-1.6029 52.3033-4.8116 62.939m63.845-138.478c-3.588-11.493-8.608-20.591-15.069-27.2968-6.4552-6.703-15.1244-12.0888-26.0017-16.1631-10.886-4.0686-24.0969-6.1043-39.6384-6.1043h-53.803c-4.0721 0-7.5345.5987-10.4019 1.7962-2.8703 1.2004-5.023 2.5118-6.4581 3.9488-1.4352 1.437-2.5115 3.7151-3.2262 6.8257-.7175 3.1134-1.1376 5.6281-1.2572 7.5412-.1196 1.9189-.1779 4.7929-.1779 8.619V458.269c0 3.832.0583 6.706.178 8.619.1195 1.9218.5396 4.4307 1.2571 7.5442.7147 3.1105 1.791 5.3886 3.2262 6.8256 1.4351 1.434 3.5878 2.7542 6.4581 3.9459 2.8674 1.2033 6.3298 1.7962 10.4018 1.7962h53.8031c11.4782 0 21.7575-1.1332 30.8467-3.4085 9.0892-2.2752 16.7404-5.2105 22.9622-8.803 6.2131-3.5895 11.5307-8.5576 15.9586-14.9042 4.4221-6.3409 7.9458-12.7518 10.5827-19.2153 2.6282-6.4635 4.6613-14.4194 6.0964-23.8854 1.4352-9.4543 2.3307-18.4325 2.6895-26.9347.3587-8.4933.5396-18.6135.5396-30.3489 0-16.9984-.6009-31.3653-1.794-43.0978-1.1988-11.7295-3.5878-23.345-7.1727-34.838M1235.4099 367.9526c-7.066-13.547-20.646-28.5974-40.7517-45.1457-6.9462-5.754-11.5537-10.487-13.8224-14.208-2.2832-3.715-3.4132-8.454-3.4132-14.208 0-9.589 5.1447-14.3894 15.44-14.3894 3.8249 0 9.2732.664 16.3333 1.9775 7.0572 1.3222 11.3113 1.9804 12.7508 1.9804h2.8701c9.0923 0 13.6443-3.598 13.6443-10.7913v-27.6993c0-5.0373-4.4878-8.8694-13.4632-11.511-8.9784-2.6385-21.1307-3.9578-36.448-3.9578-7.1797 0-13.5245.3598-19.0254 1.0794-5.5096.7196-11.9128 2.5801-19.2123 5.5756-7.3024 3.0013-13.4048 7.0148-18.31 12.0491-4.9112 5.0373-9.0982 12.5348-12.5669 22.4836-3.4716 9.9547-5.206 21.644-5.206 35.074 0 9.5919 2.0935 18.587 6.2805 26.9767 4.187 8.3985 8.9784 15.5303 14.3654 21.4042 5.3841 5.8798 14.8998 15.5302 28.544 28.9572 6.9404 6.7193 12.0822 12.4704 15.44 17.2678 3.349 4.8004 5.3227 8.2727 5.9213 10.4286.5956 2.1618.9022 4.9203.9022 8.2756 0 5.2771-2.5782 9.7733-7.7229 13.4913-5.1476 3.721-10.4762 5.5726-15.9771 5.5726-7.6616 0-15.3202-.898-22.9789-2.697-7.6645-1.7991-12.5668-2.6972-14.7216-2.6972-8.8587 0-13.2822 2.8785-13.2822 8.6354v27.6964c0 6.7164 5.022 11.6338 15.0779 14.7463 10.0528 3.1154 22.497 4.6804 37.3413 4.6804 12.926 0 24.4154-1.3222 34.4654-3.9608 16.7567-4.5488 29.563-13.544 38.4217-26.9768 6.4644-9.8318 9.6937-25.0578 9.6937-45.6839 0-16.0655-3.5359-30.8732-10.5901-44.426M792.716 346.1657c-.0528-.2366-.0557-.4877.0527-.7068l34.9487-70.166c3.0542-5.8559 5.47-10.6224 7.2006-14.2002 4.079-8.1399 6.12-14.4836 6.12-19.0369 0-3.1075-1.139-5.444-3.4201-7.0037-2.284-1.5538-4.6794-2.4504-7.2006-2.6929-2.5213-.2365-6.4246-.3592-11.7043-.3592h-20.8843c-3.1215 0-5.8214.4206-8.1025 1.2559-2.284.8411-4.1405 1.7962-5.5813 2.874-1.4377 1.0776-2.9429 3.1163-4.5007 6.107-1.5637 2.9937-2.8228 5.5084-3.7804 7.5412-.9604 2.0357-2.4011 5.628-4.3191 10.7743-1.9268 5.152-6.9664 18.4965-10.085 28.5524-3.1215 10.0558-6.363 18.441-9.7218 25.141-3.3645 6.7059-6.6032 10.0559-9.7218 10.0559-.9634 0-1.5022-2.6316-1.6222-7.9004-.123-5.263-.1787-23.8239-.1787-55.6678 0-3.829-.0615-6.7-.1786-8.6218-.126-1.913-.5417-4.4277-1.262-7.5412-.7204-3.1105-1.801-5.3886-3.2417-6.8256-1.4407-1.434-3.5988-2.7483-6.4802-3.9487-2.8814-1.1945-6.3631-1.7962-10.4422-1.7962h-18.0058c-4.085 0-7.5608.6017-10.4422 1.7962-2.8785 1.2004-5.0424 2.5147-6.4802 3.9487-1.4407 1.437-2.5212 3.7151-3.2416 6.8256-.7203 3.1135-1.142 5.6281-1.2591 7.5412-.123 1.9218-.1816 4.7928-.1816 8.6218v197.533c0 3.832.0586 6.7088.1816 8.619.117 1.9217.5388 4.4335 1.2591 7.544.7204 3.1105 1.8009 5.3886 3.2416 6.8256 1.4378 1.434 3.6017 2.7541 6.4802 3.9458C693.044 486.407 696.5198 487 700.6047 487h18.0058c4.0791 0 7.5608-.5929 10.4422-1.7991 2.8814-1.1917 5.0395-2.5118 6.4802-3.9458 1.4407-1.437 2.5213-3.7151 3.2416-6.8256.7204-3.1105 1.1362-5.6223 1.2621-7.544.1171-1.9102.1786-4.787.1786-8.619V404.395c0-2.1583-.123-5.2104-.3601-9.1592-.243-3.9516-.3602-6.6445-.3602-8.0814 0-5.266.9575-7.9004 2.8814-7.9004 1.918 0 3.7804 1.139 5.5812 3.4113 1.801 2.2752 3.719 6.0487 5.7629 11.3117 2.035 5.2718 3.959 10.5962 5.7598 15.9848 1.801 5.3857 4.1962 12.9298 7.2006 22.6264 2.9986 9.6966 5.8185 18.3768 8.4627 26.0377 4.322 12.6932 8.1025 20.5965 11.344 23.704 3.2387 3.1164 10.2607 4.6702 21.063 4.6702h18.7262C838.757 487 845 483.4076 845 476.2228c-.7145-11.633-51.9649-129.3328-52.284-130.057" />
    </g>
    <path
      d="M542.0015 326C562.9519 326 580 308.7474 580 287.5435 580 267.1915 562.5987 250 542.0015 250 521.4013 250 504 267.1916 504 287.5435 504 308.7474 521.0452 326 542.0015 326"
      fill="#002B50" />
    <path
      d="M255.5 463c-47.1482 0-85.5-39.2787-85.5-87.5472C170 329.1387 209.1428 290 255.5 290c46.3397 0 85.5 39.1387 85.5 85.4528C341 423.7213 302.6452 463 255.5 463zM85.785 402.9706c-4.03 0-26.5077.0294-29.785.0294v-53c7.953 0 24.2004.05 28.9686.05 7.51 0 20.0314 5.1348 20.0314 25.4453 0 13.0194-5.3212 27.4753-19.215 27.4753zm418.1-63.6899v110.384l-33.9785-73.8017c15.3584-19.2203 21.6187-46.3298 22.3172-65.8336l.0146-15.9624h-60.2296v15.3868c-.8388 19.6265-7.2218 28.7896-24.7722 34.4873V240l-61.2525.0643v44.2845c-22.3026-22.7968-53.1188-34.797-89.5231-34.797-39.85 0-72.87 13.803-95.4678 39.887-6.801 7.857-12.5176 16.725-17.1149 26.3205-14.8002-15.1998-35.4106-21.6923-59.873-21.6923H0V513h56.0035v-52.2467h28.0017c24.3835 0 44.9939-8.1375 59.8555-23.5243 4.723 9.9345 10.6413 19.0655 17.7082 27.0803 22.6124 25.6164 55.4277 39.1419 94.892 39.1419 38.6284 0 70.976-13.4934 93.5739-39.0338 1.5694-1.7736 3.06-3.6203 4.5037-5.4815h52.698v-54.3476l8.0752-1.8641 25.9705 56.2117H578V339.2807h-74.115z"
      fill="#002B50" />
    <path
      d="M256 382c-37.9142 0-57.0864 6.6429-65 8.6819C197.623 421.1414 224.2434 444 256 444s58.377-22.8586 65-53.3181c-7.9106-2.039-27.0828-8.6819-65-8.6819"
      fill="#D901FF" />
  </g>
</svg>