<svg id="enterFullscreenIcon" viewBox="0 0 24 24">
  <path
    d="M5.25 20a1.25 1.25 0 1 1 0-2.5h4.5a1.25 1.25 0 1 1 0 2.5h-4.5zM14.25 20a1.25 1.25 0 1 1 0-2.5h4.5a1.25 1.25 0 1 1 0 2.5h-4.5zM5.25 6.5a1.25 1.25 0 1 1 0-2.5h4.5a1.25 1.25 0 1 1 0 2.5h-4.5zM14.25 6.5a1.25 1.25 0 1 1 0-2.5h4.5a1.25 1.25 0 1 1 0 2.5h-4.5z"
    fill="#009CFF" />
  <path
    d="M5.25 11C4.56 11 4 10.44 4 9.75v-4.5a1.25 1.25 0 1 1 2.5 0v4.5c0 .69-.56 1.25-1.25 1.25zM18.75 11c-.69 0-1.25-.56-1.25-1.25v-4.5a1.25 1.25 0 1 1 2.5 0v4.5c0 .69-.56 1.25-1.25 1.25zM5.25 20C4.56 20 4 19.44 4 18.75v-4.5a1.25 1.25 0 1 1 2.5 0v4.5c0 .69-.56 1.25-1.25 1.25zM18.75 20c-.69 0-1.25-.56-1.25-1.25v-4.5a1.25 1.25 0 1 1 2.5 0v4.5c0 .69-.56 1.25-1.25 1.25z"
    fill="#009CFF" />
</svg>