<svg id="favIcon" viewBox="0 0 36 36">
  <g fill="none">
    <path
      d="M18.0837 0C12.3552 0 7.6096 1.9567 4.3607 5.657 1.5489 8.86 0 13.224 0 17.945c0 4.8601 1.578 9.3005 4.444 12.5035C7.694 34.081 12.4103 36 18.0837 36c5.551 0 10.2023-1.914 13.4495-5.5361C34.4134 27.2512 36 22.8445 36 18.0556c0-4.8365-1.5852-9.2762-4.4637-12.5017C28.2945 1.921 23.6426 0 18.0837 0z"
      fill="#002b50" />
    <path
      d="M18.0002 30.2865c-6.7867 0-12.3074-5.5782-12.3074-12.4339 0-6.5792 5.636-12.1375 12.3074-12.1375 6.6715 0 12.3076 5.5583 12.3076 12.1375 0 6.8557-5.5216 12.4339-12.3076 12.4339"
      fill="#fff" />
    <path
      d="M17.9182 18.8012c-5.4178 0-8.1573.939-9.2878 1.2275.9465 4.3075 4.7498 7.5394 9.2878 7.5394 4.5374 0 8.3411-3.2319 9.2878-7.5394-1.1304-.2884-3.8702-1.2275-9.2878-1.2275"
      fill="#009cff" />
  </g>
</svg>