<svg id="thumbsUpIcon" viewBox="0 0 36 36">
  <path
    d="M29.9 16.29c.99-2.66-.61-5.98-5.28-5.98-1.58 0-3.82.18-3.99.19.17-7.07-7.37-6.53-7.48-1.03 0 1.52-.73 2.69-3.71 3.26-2.56.49-4 2.45-4 4.66v6.16c0 5.48 6.42 3.73 8.15 4.82 2.77 1.75 7.25 1.63 10.16 1.12 4.34-.77 5.63-3.71 4.93-5.41 1.13-.6 1.48-2.91.53-3.86 1.45-.6 1.8-3.07.69-3.93zm-14.5 9.75c-.88-.56-1.97-1.07-4.36-1.07-2.02 0-2.6-.87-2.6-2.99v-4.45c0-.9.2-1.59 1.55-1.85 2.39-.45 6.16-1.86 6.16-6.2 0-.83.3-1.13.77-1.13.65 0 .92 1.48.94 2.39.05 3.21-.39 3.82-.41 4.66-.04 1.37 1.45 1.48 1.87 1.14.48-.39.81-1.06 1.15-3.04.6-.05 3.27-.14 5.19-.17 2.52-.03 1.83 2.02 1.83 2.02h-3.73a1.25 1.25 0 0 0 0 2.5h3.4c.69 0 .54 1.14 0 1.14h-4.01c-1.64.03-1.64 2.47 0 2.5h3.57c.74 0 .59 1.14-.14 1.14h-3.5c-1.64.03-1.64 2.47 0 2.5h2.78c-1.35 2.81-8.8 1.98-10.46.93z" />
</svg>